<svg xmlns="http://www.w3.org/2000/svg" width="20" height="22" viewBox="0 0 20 22">
    <g fill="#ECF0F1" fill-rule="nonzero">
        <path d="M18.34 20.954c-1.118-2.379-1.256-4.762-.41-7.084l1.23-3.381c.955-2.572-.156-4.912-1.398-6.135-.356-.35-.74-.66-1.147-.935l.079-.215A2.002 2.002 0 0 0 15.498.64a2.002 2.002 0 0 0-2.563 1.195l-.09.249a7.92 7.92 0 0 0-1.339-.003c-1.922.16-4.255 1.381-5.134 3.75L5.14 9.216c-.874 2.4-2.472 4.152-4.75 5.206a.4.4 0 0 0-.03.71l3.343 1.915c.623.356 1.2.673 1.755.962.188 1.525 1.176 2.818 2.583 3.33 1.408.513 2.997.156 4.12-.891.609.134 1.252.262 1.954.388l3.791.682a.4.4 0 0 0 .433-.563zM13.686 2.109a1.201 1.201 0 0 1 1.538-.717c.622.226.944.916.718 1.538l-.025.068a7.953 7.953 0 0 0-2.262-.803l.031-.086zm-5.37 18.478c-.952-.347-1.669-1.143-1.959-2.124.809.392 1.577.72 2.361 1.006.787.286 1.59.53 2.465.749-.853.565-1.915.715-2.867.369zm5.942-.54a49.168 49.168 0 0 1-2.118-.425h-.003a32.773 32.773 0 0 1-.838-.202l-.008-.002c-.249-.063-.49-.13-.727-.197-.046-.012-.09-.026-.135-.039-.206-.06-.408-.121-.608-.185l-.124-.04a22.165 22.165 0 0 1-2.097-.804l-.136-.06a27.766 27.766 0 0 1-1.455-.701l-.004-.001a48.577 48.577 0 0 1-1.904-1.04l-2.698-1.545c2.12-1.167 3.629-2.953 4.49-5.318l1.23-3.38c.756-2.039 2.78-3.09 4.45-3.23a7.15 7.15 0 0 1 1.475.034l.012.003a7.272 7.272 0 0 1 2.859 1.012c.004.002.01.002.015.005.453.28.879.61 1.267.992 1.155 1.14 1.978 3.215 1.208 5.29l-1.231 3.382c-.826 2.268-.776 4.674.138 7.002l-3.058-.55z"/>
        <path d="M16.359 5.78c-1.214-1.196-2.998-1.846-4.687-1.706-.964.08-2.768.684-3.42 2.44a.4.4 0 0 0 .236.514h.002a.4.4 0 0 0 .512-.236c.512-1.38 1.96-1.856 2.736-1.92 1.462-.122 3.008.442 4.059 1.477a.4.4 0 0 0 .562-.57z"/>
    </g>
</svg>
