<svg xmlns="http://www.w3.org/2000/svg" width="106" height="200" viewBox="0 0 106 200">
    <g fill="none" fill-rule="nonzero">
        <circle cx="92.717" cy="186.829" r="12.817" fill="#E8EAE8"/>
        <g fill="#2F4251">
            <path d="M94.37 191.377l-1.24-4.961 4.135-2.895 3.307 2.895-1.653 4.96zM84.448 195.098l3.721 2.894 3.72-.414-1.24-2.894-4.96-1.653zM84.448 188.07l3.308-3.308-.827-4.548-3.308.414-1.654 4.547zM91.477 177.32l4.547 1.24 3.308-1.653-3.308-2.481H91.89zM103.88 180.628h-.414l.414 4.134 1.24 2.894v-1.24c.413-2.068-.413-4.135-1.24-5.788zM103.053 194.27v-.826l-2.894 1.24-3.308 3.308.414.413c2.48-.827 4.134-2.48 5.788-4.134zM60.469 113.65s.414 4.135 3.307 4.548c2.481.414 7.856-5.374 7.856-5.374l-7.856-3.721-3.307 4.548z"/>
        </g>
        <path fill="#FEA82B" d="M60.882 110.757l20.672-12.404s14.47 9.096 18.191 13.644c0 0 4.134 1.654 2.894 7.442l-1.24 2.894H87.755s-2.894-3.307-7.028-4.135c-3.72-.826-17.777-4.96-19.845-7.441z"/>
        <path fill="#E8EAE8" d="M87.342 121.92s1.24-.414 2.894-.414c1.654 0 10.75.827 11.577 0l-.827 2.894s0 1.654-1.24 2.894L95.61 137.63l-4.134 7.856s-4.961 9.509-5.375 11.162c-.414 1.654 0 4.548.414 6.616.413 1.653-6.202.826-6.202.826l-6.615-.413s-.414-2.067.827-4.135c1.24-2.067 3.72-7.028 4.547-10.336.827-3.308 2.894-7.028 2.894-10.749 0-3.307 1.654-9.509 5.375-15.297 0 0 1.24-.414 0-1.24z"/>
        <g fill="#FC0001">
            <path d="M100.159 126.88c.827-1.24.827-2.48.827-2.48-3.308.827-9.51-1.24-10.75-1.24-.826 0-1.653-.414-2.48-.827 0 .414-.414.827-.414.827 0 .413-.413.413-.413.826 3.307 2.481 11.162 2.895 13.23 2.895zM95.61 137.63l.414-.827c-4.96 0-12.816-2.894-13.23-2.894-.413 1.654-.413 3.307-.413 4.134 3.72 1.24 9.509 2.067 11.576 2.481l1.654-2.894z"/>
        </g>
        <path fill="#FEA82B" d="M46.826 134.736c.826 4.961-.414 5.788-.414 5.788.414 2.894-2.48 7.442-2.48 7.442v.827l-10.337-2.067v-2.895s.414-3.72.414-6.615c0-2.894-1.24-10.749-1.24-11.576l14.883-.414c.414 6.616-.826 9.51-.826 9.51z"/>
        <path fill="#425A6B" d="M62.95 84.297l3.72 4.96s2.068.414 2.481 2.068c0 0 0 .413.414 0 .413-.414.413 1.24 1.24.827.827 0 1.24-.414 1.654 0 .413.413.413 2.067 1.24 1.24.827-.827 1.654-.414 2.067.827l7.442 4.547-.827-.413-19.018 13.643s-2.894 5.375.414 6.202c0 0-.827.413-1.654-.827s-6.202-4.548-6.202-4.548l-1.24 2.48v6.202c-6.615 7.029-14.47 8.683-23.566 5.375 0 0 .827-7.028.414-9.096-.414-2.067-.414-2.48-.414-2.48s-1.24-3.721-.827-6.202c-3.307-9.095-2.894-18.19 1.24-26.873l5.375-4.134 17.365 2.48 8.682 3.722z"/>
        <g fill="#344A5E">
            <path d="M59.229 98.353s-3.721 2.068-1.24 1.24c2.48-.826 4.96-2.48 4.96-2.48s4.135-3.307 5.375-4.961c0 0-5.788 6.201-7.855 6.615 0 0 1.654-2.48 2.067-3.72.414-1.241 3.307-3.308 3.307-3.308s1.654-1.654-1.24 0-9.922 6.615-6.201 4.547l3.72-2.067s-1.653 3.72-2.893 4.134zM68.738 92.566s-1.654 2.067-2.481 2.48c-.827.414-3.307 4.135-4.548 4.135-1.24.413-2.48 1.653-2.48 1.653s-5.788 4.135-.827 2.895c0 0-2.48 3.72 0 1.654 2.48-2.481 2.894-5.375 8.682-9.923-.413 0 3.307-3.722 1.654-2.894M61.71 105.795s10.749-3.72 13.643-4.96l2.894-1.241s-6.615 2.067-8.269 2.894c-2.067.413-8.269 3.307-8.269 3.307zM72.872 97.527c.827-.414 1.24-.827 1.24-.827s-.413.413-1.24.827zM72.045 95.046l-7.442 7.442s4.135-2.894 6.202-4.135c.826-.413 1.24-.826 1.654-.826-1.654.826-4.548 2.48-5.375 2.894 0 0 .413-1.654 2.067-2.48 1.654-1.241 3.307-2.068 3.307-2.068l-2.067.414s1.654-1.654 5.788-1.24l-.413-.414c-1.24 0-2.895-.414-3.721 0 0 0 1.24-.827 2.067-.827.413 0 .413-.827-.414-.413-.413.826-1.653 1.653-1.653 1.653zM64.19 102.901l1.654-1.654-1.654 1.654z"/>
            <path d="M67.497 109.103c-4.134 0-7.855-.827-7.855-.827l4.134-.414c4.135-.413.414-2.067-2.067-1.653-1.654.413.414-1.654 2.067-3.308-2.067 1.654-4.547 4.548-5.374 4.961-.827.827-2.895 4.962-2.895 4.962s5.375 3.307 6.202 4.547c.827 1.24 1.654.827 1.654.827-1.654-.414-1.654-1.654-1.24-2.894.413-1.654 1.24-3.307 2.894-4.135l2.48-2.066z"/>
        </g>
        <path fill="#FEA82B" d="M66.67 53.702s2.068 6.615 6.616 6.615c0 0-2.895 6.202-3.721 10.75-.827 4.547-4.962 9.922-4.962 9.922l-.826.827s-.827-.414-2.48-.414l2.066 2.895.827 4.547 1.24 1.24 1.24-.413s1.24-2.067 1.654-3.721c0 0 .414-.827.827-1.24.414-.414.827-1.654.827-1.654s1.24-2.894 4.134-7.028C77.42 71.893 79.9 64.45 79.9 64.45s2.481-2.894 0-8.268c-2.48-5.375-4.96-9.923-4.96-9.923l-3.722.414-4.547 7.028z"/>
        <path fill="#F5B54C" d="M41.864 18.974v1.24s.414 4.134 0 4.961c-.413.827-1.24 2.067-3.72 2.067v11.99h22.739l-4.962-9.51-3.72-3.72-3.722-7.442-6.615.414z"/>
        <path fill="#FEA82B" d="M22.433 50.808s-1.654 8.682-8.683 7.856c0 0 4.135 7.441 6.616 13.23 2.48 5.787 7.441 7.028 8.268 7.028 1.24-.414 2.894-.414 3.307-.414.414.414 2.481.414 3.308.414h2.894s3.721.826 4.961 1.654c0 0 .827.413.827 1.24s-1.24.827-1.24.827l-3.308-1.24-1.24-.414-2.894.413s-.414 0 0 0h2.48l5.375 2.067s1.24.827.414 1.654c-.414 1.24-1.654 0-1.654 0l-4.135-1.654-3.307-.413s-.827 0 0 .413c1.24 0 2.067.414 2.067.414l4.961 2.067s.827.414.414 1.24c-.414.827-1.654.414-1.654.414l-4.548-1.654s-2.48-.414-2.894.827c0 0 0 .826.414.826l.827.414 3.72 2.067s.414.827 0 1.24c-.826.414-1.653 0-1.653 0l-3.721-2.48s-.827-.414-2.067-.414c-1.24 0-4.135-1.24-4.135-1.24s-3.72-2.067-4.134-3.307c-.414-1.24-2.067-2.067-2.067-2.067s-11.99-8.683-15.71-15.711c0 0-2.482-2.894-3.308-3.72-.827-.828-.827-2.068 0-3.308.826-1.24 3.72-6.202 4.961-7.856 1.24-1.654 3.307-5.788 6.202-7.028 2.894-1.24 6.201 3.307 6.201 3.307l4.135 3.308z"/>
        <path fill="#FC0001" d="M53.44 28.07s1.654 4.96-3.72 7.855c0 0-2.068-.827-4.548-2.894s-7.442-5.375-5.788-6.202c0 0-1.654-.827-2.48.414 0 0-1.655.413-3.722 1.24-1.654.827-3.307.827-4.548 2.067 0 0-.826.827-2.067.414-1.24-.414-1.653.826-1.653.826s-1.24 0-2.481 1.654c0 0-3.721 2.067-4.548 4.135 0 0-1.24-.414-2.067 2.067 0 0 .414.413-.413.413s-1.24 1.24-1.24 1.24 0 .414-.827.414-.414.827-.414.827l-2.48 2.067v.414s7.441 8.268 11.162 9.095l1.654-2.067s.827 0 1.24-1.24c0 0 2.067 3.72 2.481 5.375.414 1.654 1.24 4.134 1.24 4.134s1.24 7.029 1.654 9.923c.414 2.894 1.24 6.201 3.308 7.442 0 0 .826.826 0 2.48l.413 3.308s11.576 5.374 16.124 2.48l8.682 1.24s-.413-1.24.414-.413 3.307 2.48 4.548.827c0 0 0-7.029-1.24-8.683 0 0 .826-7.855.826-10.336 0-2.48 1.24-4.547 0-9.922 0 0 0-3.307.414-4.961l2.48 2.48.827-.413s8.269 1.24 9.096-8.269c0 0-2.067-2.067-2.481-3.307-.414-1.24-3.72-7.028-6.615-9.096 0 0-1.24-2.067-4.135-2.48.414-.415-7.855-4.549-9.096-4.549z"/>
        <path fill="#C60001" d="M43.105 59.904c-4.548-4.135-4.135-4.548-1.24-2.894 2.894 1.654 6.2.826 1.653-.414-4.547-1.654-1.654-2.894-8.268-7.855-6.202-4.962 5.788-2.894 5.788-2.894-.827 0-1.24-.414-2.067-.414-4.548-1.654-9.51-.414-12.817 3.307-.827.827-1.24 1.654-1.24 2.067.413.414 2.067 3.721 2.48 4.962.414 1.653 1.24 4.134 1.24 4.134s1.24 7.028 1.654 9.923c0 .413 0 1.24.414 1.653 3.72 2.481 0-15.71 0-15.71 1.24 4.134 4.961 8.682 4.961 8.682-2.067-3.72-4.547-9.509-4.547-9.509l5.787 7.029s6.202 4.134 0-2.068c-5.787-6.201 2.895-1.653 5.788 1.654 2.894 2.481 4.961 2.481.414-1.653z"/>
        <path fill="#F05640" d="M24.913 50.395l-.827.827s.414 0 .827-.827z"/>
        <g fill="#E8EAE8">
            <path d="M23.26 52.048c-.414 1.24-1.654 2.481-2.894 3.308-4.135-2.067-10.337-8.682-11.163-9.51l-.414-.413c.827-1.24 2.067-2.067 3.308-2.48 2.894 2.894 7.855 7.855 10.336 8.682l.827.413zM77.42 48.741c-1.654 3.307-4.135 7.028-8.269 8.269h-.413-.414l-3.307-2.894c.826-.414 1.654-.827 2.48-.827h.414c3.307-1.24 5.375-4.548 6.615-7.856l1.24 1.24 1.654 2.068zM36.903 27.242c0 2.067 2.067 3.721 5.788 6.615.414.414.827.827 1.24.827 2.481 2.067 4.962 2.894 4.962 2.894l.826.414 1.24-.414c4.548-2.067 5.375-6.201 5.375-8.682-1.24-.413-2.067-.827-2.48-.827 0 0 1.654 4.962-3.721 7.856 0 0-2.067-.827-4.548-2.894-2.48-2.067-7.442-5.375-5.788-6.202-1.24-.413-2.067-.413-2.894.413z"/>
        </g>
        <path fill="#F5B54C" d="M43.518 83.47l-5.375-2.067h-2.48c-.414 0 0 0 0 0l2.894-.414 1.24.414 3.307 1.24s1.24.414 1.24-.827c0-1.24-.826-1.24-.826-1.24-1.654-.827-4.961-1.654-4.961-1.654h-2.895c-.826 0-2.48 0-3.307-.413-.414-.414-2.48 0-3.307.413h-.827v9.509c.827.414 1.654.414 2.067.414 1.24 0 2.067.413 2.067.413l3.721 2.48s1.24.828 1.654 0c.827-.413 0-1.24 0-1.24l-3.721-2.067-.827-.413c-.827-.414-.413-.827-.413-.827.413-1.24 2.894-.827 2.894-.827l4.547 1.654s1.24.827 1.654-.413c.414-.827-.413-1.24-.413-1.24l-4.961-2.068s-.827-.413-2.068-.413c-1.24 0 0-.414 0-.414l3.308.414 4.134 1.654s1.24.826 1.654 0c.827-1.241 0-2.068 0-2.068z"/>
        <path fill="#FEA82B" d="M57.988 11.945s1.654.414 1.654 2.067c-.413 1.654 0 2.067 0 2.067s0 .827-.413 1.654c-.414.827-.414 2.067-1.24 1.654 0 0 0 4.548-2.895 7.442 0 0-.827 2.48-3.307 2.894-2.48.414-4.961-.826-5.788-1.654 0 0-3.721-2.48-4.135-8.268 0 0-.413.827-.826.413-.414-.413-.827-.826-.414-1.654 0 0-.827-2.067-.827-2.48 0 0-.826-1.654 0-2.48 0-1.241.827-2.481.827-2.481s-1.24-6.616 6.615-6.616h9.096c.413 0 1.24 1.654 1.24 1.654l.827 2.481-.414 3.307z"/>
        <path fill="#425A6B" d="M54.68 5.744c1.654-.827 2.068 2.894 2.068 2.894s-.414 2.067.826 3.307c0 0 .414 4.135.414 4.548v.414s.414 0 .414-1.24c0-1.241.413-1.655.413-1.655s.414 0 .414-2.48c-.414-2.48-.414-8.682-7.442-11.163 0 0-2.894-1.24-5.375.827 0 0-4.961.826-6.202 5.788-1.24 5.375-.826 6.615-.826 6.615s1.654.827 1.654 2.48c0 1.24 0 2.068.826 2.481 0 0-.826-4.134 0-5.375.827-1.24 1.24-2.067.827-3.72 0 0 0-2.895 2.48-2.895 2.895.827 6.202.827 9.51-.826z"/>
        <path fill="#67C5B8" d="M71.218 167.397s-.413 1.24 0 1.654c.414.414.414 1.24.414 1.24l2.067 1.24.413-.826s1.654 0 1.654.827v.827l1.24.413.414-.413h.414l.413-.414s4.962 1.654 5.788 2.48l.827 1.24h1.24l.414-.413.827.414v1.24h1.24l.414-.413h1.24l.413.826h1.24l.414-.413s2.067.413 2.067 0v.827h1.24l1.24-.827s2.895 0 2.895-1.24l-6.201-1.24-22.74-6.616.413-.413z"/>
        <path fill="#425A6B" d="M100.572 175.666s-9.509.414-11.99-.413c-2.48-.827-4.134-1.654-4.134-1.654s-3.72-1.654-7.442-2.894c-2.48-.827-4.547-1.654-5.375-2.067-.413-.414-.826-.827-.826-1.24 0-2.481.826-5.376 3.307-8.27 0 0 .414-.413.827 0v.414c0 .414.413 1.654 0 2.067 0 1.24 2.894 1.24 3.307 1.24.414 0 2.894-1.24 4.961-.826l.827-1.654s.414-.827.827-.827.827 1.24.827 1.24.413 1.24.826 1.24c.414.414 0 1.241-.413 1.241l1.654 1.654c.826.827.826 1.24.826 1.24s2.067.827 2.481 2.067c.827 1.24 5.375 3.308 7.855 3.721 2.895.827 1.655 3.721 1.655 3.721z"/>
        <path fill="#E8EAE8" d="M33.595 143.831s0 1.24 1.654 2.067c1.654.827 7.029 3.308 8.682 1.654v3.721c0 1.24 1.24 9.096 1.24 13.23s.414 11.163 1.241 13.23c.827 2.067 3.307 7.442 3.307 7.442l-5.374 3.72s-2.895.414-2.895 0l-.413-4.96s0-1.24-.414-3.308c-.826-2.067-3.72-10.336-3.72-10.336-2.481-6.201-4.548-12.817-4.548-18.191l.826-4.134s-.413-1.24 0-2.068c.414-1.24.414-2.067.414-2.067z"/>
        <g fill="#FC0001">
            <path d="M43.931 149.206c-2.894 1.24-5.788 0-7.441-.413-1.24-.414-2.895-1.654-3.721-2.481v1.654c1.653 1.654 3.307 2.894 6.201 3.72 2.48.828 4.135 0 4.961-.413v-2.067zM34.422 163.676c4.135 1.654 9.51 1.654 10.75-1.654 0-1.24 0-2.48-.414-3.72-.413.826-1.24 1.653-4.134 2.48-2.895.827-5.788-.413-7.442-1.24.413 1.654.827 2.894 1.24 4.134z"/>
        </g>
        <path fill="#67C5B8" d="M42.278 195.511s1.24 1.654 2.067 2.067l.413.827.827.414.413-.827.827.413v.827h1.24v-.413h1.24l.414.826h1.24l1.241-.826s1.654 0 2.067-.414l.414.827 1.24-.414v-.827s1.654-1.24.827-2.894c-.827-1.654-2.48-1.654-2.48-1.654l-5.376.827-6.614 1.241z"/>
        <g fill="#425A6B">
            <path d="M41.037 183.935s.414 1.24.414 2.067c0 .827 0 .827.827.414.826-.414 1.653-.827 2.067-.414 0 0 .826-2.894 2.48-3.307 1.654 0 2.894 1.24 2.894 1.24s.414 0 .827.827c.414.826.827 1.24.827 1.24s-.414 2.48 1.24 4.134c1.654 1.654 4.548 5.375 2.894 6.616 0 0-3.72.826-4.96.826-1.241 0-5.789 0-7.443-1.24-1.654-.827-2.067-2.48-2.067-2.48s-1.654-2.481-1.24-4.548c.827-2.068 1.24-5.375 1.24-5.375z"/>
            <path d="M55.92 197.165s-3.72.826-4.96.826c-1.24 0-5.788 0-7.442-1.24-1.654-.827-2.067-2.48-2.067-2.48s-1.654-2.481-1.24-4.548c.413-2.067.826-5.375.826-5.375s.414 1.24.414 2.067c0 .827 0 .827.827.414.826-.414 1.653-.827 2.067-.414 0 0 0-.413.413-.827.414-.826 1.24-2.067 2.067-2.067.827 0 1.654.414 2.067.827l.827.827s.414 0 .827.827c.413.826.826 1.24.826 1.24s-.413 2.48 1.24 4.134c2.069.827 4.963 4.135 3.309 5.789z"/>
        </g>
        <g fill="#344A5E">
            <path d="M49.72 191.79c-1.654.827-4.548-5.374-5.375-6.615.413-.827 1.24-2.067 2.067-2.067.826 0 1.654.414 2.067.827.413 1.654 1.654 4.548 2.067 5.788 1.24.827 1.24 1.24-.827 2.067zM55.92 113.237s.414.414 1.241.827v-.827c0-5.788-4.134-16.124-4.134-16.124 2.894 8.269 1.654 18.605 1.654 18.605l1.24-2.48z"/>
        </g>
    </g>
</svg>
