<svg xmlns="http://www.w3.org/2000/svg" width="22" height="22" viewBox="0 0 22 22">
    <g fill="#ECF0F1" fill-rule="nonzero">
        <path d="M20.865 12.616c.564-.97.94-2.061 1.077-3.226v-.01a8.37 8.37 0 0 0-2.148-6.645.43.43 0 0 0-.076-.083A8.428 8.428 0 0 0 16.412.485 8.365 8.365 0 0 0 13.598 0a8.359 8.359 0 0 0-3.193.63 8.44 8.44 0 0 0-3.077 2.185.444.444 0 0 0-.072.082 8.367 8.367 0 0 0-2.008 6.438l.001.012c.063.556.18 1.096.345 1.614l-4.513 4.513a.43.43 0 0 0 .608.608L5.93 11.84a8.379 8.379 0 0 0 .442.848 8.441 8.441 0 0 0 4.807 3.761l-3.027 3.027a.43.43 0 0 0 .608.608l3.403-3.403a8.406 8.406 0 0 0 8.647-3.975.428.428 0 0 0 .054-.09zm-3.718.017l-1.529-2.352.813-2.502 1.932-.434.503-.113 2.196 2.256a7.485 7.485 0 0 1-.87 2.573l-3.045.572zm-5.57-2.352l-1.527 2.351-3.055-.586a7.488 7.488 0 0 1-.867-2.596l2.2-2.218 2.437.547.541 1.667.272.835zM7.344 4.19l.388 2.422-1.675 1.689A7.499 7.499 0 0 1 7.343 4.19zm5.019 5.722l-.76-2.336 1.988-1.443 1.987 1.443-.76 2.336h-2.455zm8.778-1.577l-1.684-1.73.298-2.558a7.501 7.501 0 0 1 1.386 4.288zm-2.145-5.198l-.38 3.27-.925.207-1.497.336-2.158-1.567V3.057l2.332-1.67a7.57 7.57 0 0 1 2.628 1.751zm-3.653-2.075L13.58 2.327l-1.966-1.202a7.523 7.523 0 0 1 3.728-.062zm-4.77.43l2.588 1.585v2.306l-1.522 1.105-.635.462-2.435-.546-.5-3.127a7.576 7.576 0 0 1 2.504-1.784zM7.66 13.049l2.318.446 1.181 2.046a7.574 7.574 0 0 1-3.5-2.492zm4.662 2.789l-1.566-2.715 1.527-2.35h2.63l1.526 2.35-1.565 2.715a7.559 7.559 0 0 1-2.552 0zm3.715-.297l1.18-2.046 2.31-.434a7.572 7.572 0 0 1-3.49 2.48z"/>
        <path d="M5.918 15.474L.126 21.267a.43.43 0 1 0 .607.607l5.793-5.792a.43.43 0 0 0-.608-.608zM7.14 20.668a.433.433 0 0 0-.43.43.432.432 0 0 0 .43.43.431.431 0 0 0 .303-.734.433.433 0 0 0-.304-.126z"/>
    </g>
</svg>
