<svg xmlns="http://www.w3.org/2000/svg" width="100" height="150" viewBox="0 0 100 150">
    <g fill="none" fill-rule="nonzero">
        <path fill="#FEA82B" d="M53.417 78.313l1.559 2.183s-.312 6.238 0 8.11L44.372 92.66l-4.99-11.54 14.035-2.807z"/>
        <path fill="#FC0001" d="M43.748 91.412s2.183-.623 2.807-1.247c.624-.624 6.55-3.431 8.109-2.807 0 0 .624 4.99 1.871 5.926 0 0 1.56 4.366 3.12 7.797 1.559 3.43 2.806 6.862 3.43 10.604.312 2.184.624 4.055.936 4.99.935 2.496 2.183 12.164 2.183 12.164l-4.678 4.367s-3.12 0-3.12-3.12c-.311-3.118 0-2.494-.935-5.301-.936-2.807-3.119-7.798-3.119-7.798s-4.678-4.678-5.926-13.723c0 0-3.742-9.669-4.678-11.852z"/>
        <path fill="#2F4251" d="M64.956 138.508s1.56 2.495 1.872 2.807c.623.312.623 0 .623 0v-.936h.312l.312.624c.312 0 .624 0 .624-.312v-.936l.624.624c.623 0 1.247-.312 1.871-.624v-.624c.312-.312.312-.623.624-.312l.312.312c.312.312.624.312.935-.312v-1.56l-.935-1.558-7.174 2.807z"/>
        <g fill="#FEA82B">
            <path d="M8.816 43.069s.936 7.173-1.248 12.476c-2.183 5.302-2.495 11.228-2.495 11.228s0 1.871.936 2.807c.936.624 1.248 2.807 1.248 2.807s0 2.183.623 3.43c.624 1.248.936 2.496.624 2.808-.312.312-1.248.623-1.871-.312-.624-.936-.936-2.184-.936-2.184l-.312-.623s-.936.312-.936 1.247l.312 1.248s.312.936.312 1.56c0 0 .936.623.936 1.247 0 0 1.56.624 1.248 1.56 0 0-.312.311-.936 0 0 0-.624 0-.936-.313-.312-.623-2.495-2.183-2.495-2.183S1.643 78 1.643 77.689l-.936-1.56s.312-5.614.624-6.237c0 0 .312-1.248 0-1.872-.312-.312-.624-2.183-.312-2.495 0 0 0-4.366-.312-9.669-.312-5.302 1.56-13.723 2.495-16.218l5.614 3.431zM72.13 27.163l.936-.624s5.926 2.183 7.797 4.055c1.872 1.87 6.55 4.366 6.55 4.366s.936 0 1.56.936c.311.623 1.247.312 1.247.312s2.183-.312 3.43.312c.936.312 2.808.935 3.12 1.247l.623.624 1.248 2.183s.312.624.624.936c0 0-.312 1.248-1.248.624 0 0-.624.623-1.56-.312-.623-.624-.623-.936-.623-.936s-1.248-.936-1.56-1.248c0 0-.311 0-.311.312 0 0 .935.936.935 1.248 0 .312-.623.936-1.56.624-.935-.624-1.247-.624-1.247-.624s-1.56.624-2.183.624c0 0-.624.935-1.248 1.247 0 0 0 1.56-.935 1.248l-.624-.624s-.624-.623-.936-.623c-.312 0-1.56-1.248-1.247-1.56.312-.623.312-.935.312-.935s-1.56-.936-2.807-.936c-1.248 0-9.98-.936-11.54-3.743-1.56-3.431 1.247-8.733 1.247-8.733z"/>
        </g>
        <path fill="#48B9A5" d="M32.832 73.946v4.367l-1.248 1.247-1.247.624-2.184.312-2.495.936s-.623 2.807 1.248 4.366c1.56 1.56 4.366-1.56 4.366-1.56s1.248-1.559 1.248-2.494c0-.936 1.56-3.12 1.56-3.12s1.87-1.559 2.183-3.43c0-1.248-3.431-1.248-3.431-1.248z"/>
        <path fill="#FEA82B" d="M24.723 78.937c-.312 1.559-.936 2.807-1.872 3.742l-2.807 2.184-4.99.935-1.872-1.56c-.312-.623-.312-1.247-.623-1.87 0-.624 0-1.248-.312-1.56-.312-1.247-.624-3.743-.312-6.238.623-3.742 3.43-3.43 3.43-3.43l9.358 7.797z"/>
        <path fill="#F5B54C" d="M35.015 18.742l.936.623 1.247 12.476-4.99 5.302L20.98 25.915l.624-7.485z"/>
        <path fill="#FC0001" d="M72.754 30.905c-.312.936-.624 1.56-.624 2.184-.312 1.559-.936 2.807-1.871 4.054-.936.936-2.184 1.872-3.743 1.56-3.43-.624-3.743-.936-4.99-.936-1.248 0-2.495-.312-2.495-.312s-.624-.312-1.872-.312h-4.054s-.936 0-1.248 1.248c-.312 1.247-1.56 2.807-2.807 3.119-1.248.312.624 5.926.624 5.926s-.624 3.119-.936 4.054c0 0 .936.936.312 3.743 0 0 0 .936.624 1.56.623.623 1.871 5.925 1.871 5.925s-7.797 7.798-18.713 7.174l-10.917-.936s-8.109.624-8.42-5.614c0 0-.313-2.183.311-3.119.624-.936.312-2.495.312-2.495s-.312-1.248.312-1.56c.624-.311-.312-.935-.312-.935s-.312-2.807.936-4.678c0 0-.936-5.302 0-8.11 0 0-.936-.623-.936-.935 0 0-2.807 3.743-3.119 5.614 0 0-2.183.312-3.43.312-1.248-.312-3.431-.624-3.743-1.871-.312-.936-1.248-.936-3.119-3.431 0 0-.936-.624-.312-2.495.936-1.56 4.366-9.357 4.366-9.357s3.431-5.926 3.431-6.862c0-.935 1.248-1.87 1.871-2.183.624-.312 1.248-1.248 1.248-1.248s.936-.935 2.183-.935c.936 0 2.184-.936 2.184-.936s1.871-1.248 3.43-1.56h.624c2.495 7.174 6.862 11.853 11.54 16.22 0 0 1.872-2.184 4.055-6.55 1.871-4.055.624-8.734-.624-12.164h.312l.312 1.56s7.486-.625 10.605 1.558c0 0 3.742 0 5.302 1.248 0 0 6.55 1.871 8.733 3.743 2.183 1.871 4.366 1.56 4.366 1.56s1.248.935 4.366 1.559c2.807.312 4.99 2.183 4.99 2.183s0 1.559-.935 3.43z"/>
        <path fill="#F3F3F3" d="M36.575 15.31h-1.56l-.312-1.559h-.312c1.248 3.12 2.807 8.11.624 12.164-2.183 4.367-4.055 6.55-4.055 6.55-4.678-4.366-9.045-9.045-11.54-16.219h-.624c-.311 0-.623 0-.935.312 2.495 7.174 6.55 12.164 11.852 16.843.312.312.623.312.935.312.312 0 .936-.312 1.248-.624 0 0 2.183-2.495 4.366-6.862 2.184-3.119 1.248-7.485.313-10.916z"/>
        <path fill="#FEA82B" d="M35.639 15.935s.936 5.302-.936 7.485c-1.56 2.183-1.871 3.119-1.871 3.119s-1.56 2.807-3.743 2.495c-2.183-.312-3.43-1.871-3.43-1.871s0-.312-.936-.936c-.936-.312-3.743-2.807-4.367-4.99 0 0-.623-1.56-.623-2.495 0-.624-.624-2.496-.936-2.807-.312 0-.312-2.184-.312-2.184l15.283-.936 1.87 3.12z"/>
        <path fill="#425B6B" d="M18.797 16.246s-.624-1.87 1.247-1.559c1.872.312 4.055 2.183 5.302.624 1.248-1.56 4.367-.624 4.367-.624s1.56.312 2.183-.312c.624-.624 1.56.312 1.56.312l1.247 2.183.624-.312s-.936-1.247-.624-2.183l.624-2.495s-.312-3.119-.624-4.366c-.311-1.248-1.247-5.926-5.926-7.174C24.1-.908 20.98 1.588 19.108 2.835c-1.559 1.248-3.43 4.678-3.119 7.485.936 2.496 2.184 5.615 2.808 5.926z"/>
        <g fill="#FEA82B">
            <path d="M35.327 16.558c-.312-.623-.624-1.559-.312-2.495.312-.935.312-2.495.936-2.807.623-.312 1.247-.312 1.247.312.312.624 0 1.248 0 1.248s-.312 1.871 0 2.495c.312.624-.312 1.56-.623 1.871-.624 0-.624 0-1.248-.624zM34.391 76.442c-.312-1.872-1.56-2.184-1.56-2.184h-.623l-3.743 4.367L24.1 78s.312 3.119-1.248 4.366c-1.247.936-2.495 1.56-3.742 2.184-.624.312-1.248.312-1.872.623-1.559.312-2.183 0-2.183 0s-1.871-.623-2.495-2.807v1.248c.312.624.624.936.936 1.248.623.623 1.871.935 2.807.623.935 0 1.871-.312 2.807-.623.623-.312 1.247-.312 1.871-.624.624-.312 1.248-.936 1.56-1.248l3.43-1.247s2.807-.312 2.807-.624c0 0 0 .312.936.312s2.495-.936 2.495-.936 2.183-2.183 2.183-4.054z"/>
        </g>
        <path fill="#425A6B" d="M49.674 61.782l2.183.312s.312.312.624 2.807.936 4.055.936 4.055.935 2.183.935 3.743 0 2.183.312 3.119c.312.936.312 4.366.312 4.366-5.926 3.12-12.787 3.12-15.594.624l-3.43-5.614c-.313-.936-1.872-.936-3.432-1.248 0 0-1.87 1.872-3.119 3.743-.935 1.871-3.119 2.495-4.99 2.495-3.119-.312-6.238-.936-9.357-2.495-.312-.312-.935-.312-1.247-.624-1.56-1.247-2.184-3.119-1.872-4.99l1.872-9.669 35.867-.624z"/>
        <path fill="#48B9A5" d="M59.342 132.27s2.807-.312 2.807-.936c0 0-1.559-1.247.312-1.871 1.872-.624 4.055-.624 4.055-.624s.936.312 2.183 2.495c.936 1.872 2.495 2.495 3.743 3.12.624.311 2.183 1.559.624 2.806 0 0-1.872-.312-3.743.936-1.871 1.248-2.495 2.495-3.743 1.56-1.247-.936-1.87-2.184-1.87-2.184l-4.368-5.302z"/>
        <ellipse cx="54.037" cy="137.256" fill="#E8EAE8" rx="12.476" ry="12.164" transform="rotate(-90.206 54.037 137.256)"/>
        <g fill="#2F4251">
            <path d="M55.6 141.939l-1.248-4.679 4.055-3.119 3.43 3.12-1.559 4.678zM45.931 145.681l3.743 2.807 3.743-.624-1.248-2.807-4.99-1.559zM46.243 138.508l3.119-3.12-.936-4.366-3.43.312-1.56 4.367zM53.105 127.904l4.366 1.559 3.12-1.56-3.12-2.495h-4.366zM64.956 131.334l-.623.312.312 4.055 1.247 2.807h.312v-1.248c.312-2.183-.312-4.054-1.248-5.926zM64.02 144.746l.313-.936-2.807 1.248-3.12 3.119.313.312h.312c1.871-.625 3.742-1.872 4.99-3.743z"/>
        </g>
    </g>
</svg>
