<svg xmlns="http://www.w3.org/2000/svg" width="11" height="12" viewBox="0 0 11 12" >
    <g fill="#ebba16" fill-rule="nonzero">
        <path d="M3.947 11.562l1.539-4.396-4.042-.012a.303.303 0 0 1-.232-.502l3.553-4.371C5.351 1.57 5.938.848 6.535.113a.308.308 0 0 1 .428-.049c.098.086.135.22.098.343l-1.55 4.408 4.041.013c.171 0 .305.134.305.306a.301.301 0 0 1-.06.183C8.66 6.787 7.463 8.232 6.266 9.69c-.586.71-1.172 1.42-1.795 2.18a.308.308 0 0 1-.427.048c-.11-.098-.147-.232-.098-.355"/>
        <path d="M3.19 10.19c.147.086.208.27.122.417-.085.147-.268.208-.415.123a5.47 5.47 0 0 1-2.1-2.02A5.483 5.483 0 0 1 4.253.566a.305.305 0 0 1 .366.232.306.306 0 0 1-.232.367 4.857 4.857 0 0 0-3.749 4.74c0 .893.244 1.75.684 2.497a4.862 4.862 0 0 0 1.868 1.788M7.88 1.644c-.147-.086-.208-.27-.123-.416.085-.147.269-.209.415-.123a5.463 5.463 0 0 1 2.076 2.008 5.499 5.499 0 0 1-.452 6.22 5.507 5.507 0 0 1-3.077 1.923.315.315 0 0 1-.366-.233.316.316 0 0 1 .232-.367 4.867 4.867 0 0 0 3.81-4.75c0-.895-.245-1.74-.672-2.474a4.888 4.888 0 0 0-1.844-1.788"/>
    </g>
</svg>
