<svg xmlns="http://www.w3.org/2000/svg" xmlns:xlink="http://www.w3.org/1999/xlink" width="100" height="112" viewBox="0 0 100 112">
    <defs>
        <circle id="b" cx="15" cy="15" r="15"/>
        <filter id="a" width="546.7%" height="546.7%" x="-223.3%" y="-216.7%" filterUnits="objectBoundingBox">
            <feOffset dy="2" in="SourceAlpha" result="shadowOffsetOuter1"/>
            <feGaussianBlur in="shadowOffsetOuter1" result="shadowBlurOuter1" stdDeviation="22"/>
            <feColorMatrix in="shadowBlurOuter1" values="0 0 0 0 0 0 0 0 0 0 0 0 0 0 0 0 0 0 0.22 0"/>
        </filter>
    </defs>
    <g fill="none" fill-rule="evenodd" transform="translate(26 36)">
        <circle cx="18" cy="18" r="17" stroke="#28AE62" stroke-width="2"/>
        <g opacity=".5">
            <g transform="translate(3 3)">
                <use fill="#000" filter="url(#a)" xlink:href="#b"/>
                <use fill="#FFF" xlink:href="#b"/>
            </g>
            <g fill="#EBBA16" fill-rule="nonzero">
                <path d="M15.52 26.343l2.309-6.594-6.063-.018a.454.454 0 0 1-.348-.753l5.33-6.557c.88-1.065 1.758-2.15 2.656-3.251a.461.461 0 0 1 .64-.074c.147.129.202.331.147.515l-2.326 6.612 6.063.018c.256 0 .458.202.458.46 0 .11-.037.202-.092.275-1.703 2.204-3.498 4.371-5.293 6.557-.88 1.065-1.758 2.13-2.693 3.27a.461.461 0 0 1-.64.073c-.166-.147-.22-.349-.147-.533"/>
                <path d="M14.385 24.286c.22.129.312.404.183.625-.128.22-.403.312-.622.183a8.204 8.204 0 0 1-3.15-3.03 8.28 8.28 0 0 1-1.155-4.206 8.225 8.225 0 0 1 6.338-8.009.458.458 0 0 1 .55.35.46.46 0 0 1-.349.55 7.285 7.285 0 0 0-4.048 2.572 7.326 7.326 0 0 0-1.575 4.537c0 1.34.366 2.626 1.026 3.747a7.293 7.293 0 0 0 2.802 2.681M21.419 11.466c-.22-.129-.312-.404-.184-.625.129-.22.403-.312.623-.183a8.195 8.195 0 0 1 3.114 3.012 8.248 8.248 0 0 1 1.136 4.188A8.212 8.212 0 0 1 24.294 23a8.26 8.26 0 0 1-4.615 2.884.473.473 0 0 1-.55-.349.474.474 0 0 1 .348-.55 7.3 7.3 0 0 0 4.103-2.554 7.352 7.352 0 0 0 1.612-4.573c0-1.341-.366-2.609-1.008-3.71a7.332 7.332 0 0 0-2.765-2.682"/>
            </g>
        </g>
        <g fill-rule="nonzero">
            <path fill="#FF7058" d="M19.458 23.155h-2.93l.499-1.066.433-.999h1.066l.433 1z"/>
            <path fill="#FFD15C" d="M21.323 23.155h-6.66c-.367 0-.667.3-.667.666v2.165h7.96V23.82c.033-.366-.266-.666-.633-.666z"/>
            <path fill="#F1543F" d="M18.959 22.09a8.512 8.512 0 0 1-.8.366l-.166.033-.167-.067a8.52 8.52 0 0 1-.799-.366l.433-1h1.032l.467 1.033z"/>
            <g fill="#F8B64C">
                <path d="M10 11.832v1.365c0 3.33 2.065 6.195 4.962 7.394.933.4 1.965.599 3.03.599a7.69 7.69 0 0 0 3.031-.6c2.898-1.198 4.963-4.063 4.963-7.393v-1.365H10zm14.654 1.365a6.587 6.587 0 0 1-1.532 4.23c-1.233 1.465-3.064 2.43-5.13 2.43a6.596 6.596 0 0 1-5.128-2.43 6.706 6.706 0 0 1-1.532-4.23v-.033H24.62v.033h.034zM23.188 10h-10.39c-.234 0-.4.2-.4.4 0 .233.166.433.4.433h10.39c.233 0 .4-.2.4-.4 0-.233-.167-.433-.4-.433z"/>
            </g>
            <path fill="#FFD15C" d="M23.188 10.833v3.596a8.116 8.116 0 0 1-5.195 7.56 8.16 8.16 0 0 1-5.195-7.593v-3.563h10.39z"/>
            <path fill="#FFF" d="M17.993 12.331l.7 2.132h2.23l-1.798 1.332.666 2.131-1.798-1.332-1.799 1.332.667-2.131-1.799-1.332h2.231z"/>
            <path fill="#FFC952" d="M12.797 10.833h10.357v1H12.797z"/>
        </g>
    </g>
</svg>
