<svg xmlns="http://www.w3.org/2000/svg" width="27" height="22" viewBox="0 0 27 22">
    <g fill="#ECF0F1" fill-rule="nonzero">
        <path d="M23.528 21.987a.518.518 0 0 1-.484-.341.518.518 0 0 1 .151-.565.52.52 0 0 1 .604-.044.519.519 0 0 1 .236.52.519.519 0 0 1-.507.43zM13.159 19.051a.514.514 0 0 1-.514-.514v-3.856a.514.514 0 1 1 1.028 0v3.856c0 .284-.23.514-.514.514z"/>
        <path d="M25.804 12.476H18.4v-1.37a.514.514 0 0 0-.514-.514H8.431a.514.514 0 0 0-.515.514v2.74H.514a.514.514 0 0 0-.514.513v7.114c0 .284.23.514.514.514h20.699a.514.514 0 1 0 0-1.028H18.4v-7.455h6.889v7.969a.514.514 0 1 0 1.028 0V12.99a.514.514 0 0 0-.514-.514zM1.028 14.873h6.888v6.086H1.028v-6.086zm7.917-3.253h8.428v9.339H8.945v-9.34zM5.642 11.176a.853.853 0 0 1-.327-.066l-.843-.349-.843.35a.845.845 0 0 1-.825-.098.845.845 0 0 1-.348-.756l.072-.91-.593-.693a.845.845 0 0 1-.163-.815.845.845 0 0 1 .611-.565l.887-.212.477-.779a.845.845 0 0 1 .725-.406c.299 0 .57.152.726.406l.476.779.888.212c.29.07.518.28.61.565a.845.845 0 0 1-.162.815l-.593.694.072.91a.845.845 0 0 1-.348.755.847.847 0 0 1-.499.163zm-2.738-2.97l.543.636a.514.514 0 0 1 .122.374l-.066.834.772-.32a.514.514 0 0 1 .394 0l.772.32-.065-.834a.514.514 0 0 1 .121-.374l.543-.636-.813-.195a.514.514 0 0 1-.318-.23l-.437-.714-.436.713a.514.514 0 0 1-.319.231l-.813.195zM20.676 11.176a.848.848 0 0 1-.5-.163.845.845 0 0 1-.347-.756l.072-.91-.593-.693a.844.844 0 0 1-.162-.815.844.844 0 0 1 .61-.565l.887-.212.477-.779a.845.845 0 0 1 .725-.406c.299 0 .57.152.726.406l.477.779.887.212c.29.07.518.281.61.565a.845.845 0 0 1-.162.815l-.592.694.071.91a.845.845 0 0 1-.348.755.845.845 0 0 1-.825.097l-.843-.349-.843.35a.855.855 0 0 1-.327.065zm1.17-1.486c.066 0 .133.014.196.04l.773.32-.066-.834a.514.514 0 0 1 .121-.374l.543-.636-.812-.195a.514.514 0 0 1-.319-.23l-.437-.714-.436.713a.514.514 0 0 1-.319.231l-.813.195.544.636a.515.515 0 0 1 .121.374l-.066.834.773-.32a.514.514 0 0 1 .196-.04zM11.109 8.512a1.1 1.1 0 0 1-.647-.212 1.097 1.097 0 0 1-.452-.98l.138-1.754L9.006 4.23a1.097 1.097 0 0 1-.21-1.059c.119-.368.415-.642.792-.732l1.71-.41.92-1.5c.202-.33.554-.528.94-.528.388 0 .74.197.942.527l.92 1.5 1.71.411c.377.09.673.364.793.732.12.369.04.764-.211 1.059l-1.143 1.337.138 1.754c.031.386-.138.753-.451.98a1.097 1.097 0 0 1-1.072.127l-1.625-.673-1.625.673a1.109 1.109 0 0 1-.425.085zm2.05-7.484c-.043 0-.06.027-.065.036l-1.03 1.682a.514.514 0 0 1-.319.231l-1.917.46a.07.07 0 0 0-.055.051.071.071 0 0 0 .014.073l1.281 1.5a.514.514 0 0 1 .122.374L11.035 7.4c0 .01-.003.043.031.068.035.025.064.012.074.008l1.822-.755a.514.514 0 0 1 .394 0l1.822.755c.01.004.039.017.073-.008a.07.07 0 0 0 .032-.068l-.155-1.966a.514.514 0 0 1 .121-.375l1.281-1.499c.007-.008.028-.032.015-.073a.07.07 0 0 0-.055-.05l-1.918-.46a.513.513 0 0 1-.318-.232l-1.03-1.682a.07.07 0 0 0-.065-.036z"/>
    </g>
</svg>
