<svg xmlns="http://www.w3.org/2000/svg" xmlns:xlink="http://www.w3.org/1999/xlink" width="340" height="100" viewBox="0 0 340 100">
    <defs>
        <path id="a" d="M2.104 2.256L.1 1.377 1.242.165l1.482 1.388-.62.703"/>
        <path id="c" d="M1.252 3.42L.017 1.722 2.083.213l.725.932-1.556 2.274"/>
        <path id="e" d="M5.218 5.712L.376 3.164 3.437.342l3.451 3.725-1.67 1.645"/>
        <path id="g" d="M2.273 6.363L.116 3.029l4.06-2.64 1.275 1.836-3.178 4.138"/>
        <path id="i" d="M3.36 6.366l-3.3-2.16L2.687.176 4.582 1.33 3.359 6.366"/>
        <path id="k" d="M.794 3.25L.096.616 1.302.257l1.653 2.426-2.16.567"/>
        <path id="m" d="M2.752 4.32L.354 3.235 1.672.306l1.37.568-.29 3.447"/>
        <path id="o" d="M1.21 2.308C-.203 2.308-.2.113 1.21.113c1.415 0 1.413 2.195 0 2.195"/>
        <path id="q" d="M1.21 2.403c-1.536 0-1.533-2.384 0-2.384 1.537 0 1.534 2.384 0 2.384"/>
        <path id="s" d="M1.21 2.308C-.203 2.308-.2.113 1.21.113c1.415 0 1.413 2.195 0 2.195"/>
        <path id="u" d="M1.679 2.312a.56.56 0 0 1-.065-.004c-.162-.02-.378-.021-.526-.069-.207-.067-.345-.173-.516-.309l.043.025a.866.866 0 0 1-.31-.31.922.922 0 0 1-.124-.434.86.86 0 0 1 .125-.435.865.865 0 0 1 .262-.283.864.864 0 0 1 .107-.08c.172-.133.334-.22.556-.25l.383-.05A.58.58 0 0 1 1.69.11c.258 0 .52.16.701.326.216.198.309.492.322.776.012.273-.131.585-.322.775-.161.161-.463.326-.711.326"/>
        <path id="w" d="M2.888 20.16h-.001C2.003 13.8 4.207 7.453 6.909 4.162 4.206 7.453 2.005 13.8 2.889 20.16M.43 10.314l.015-.06-.015.06m.02-.077C2.111 3.493 6.441.406 9.052.363c-2.61.043-6.94 3.13-8.604 9.874m6.477-6.095l.055-.067-.055.067m.204-.24c.763-.875 1.44-1.181 2.013-1.182-.573 0-1.25.307-2.013 1.181"/>
        <path id="y" d="M9.366 8.937c5.235 0 6.622-3.964 6.51-6.29.112 2.326-1.274 6.29-6.51 6.29m.307-3.491c2.56-.021 3.672-1.281 4.25-2.217-.578.936-1.689 2.196-4.25 2.217M4.42 4.272C2.997 3.715 1.505 2.937.027 1.986h.001c1.478.95 2.969 1.729 4.393 2.286m11.453-1.649C15.746.172 14.503.01 14.401 0c.102.01 1.345.172 1.473 2.623"/>
        <path id="A" d="M.254.336h39.842V58.52H.254z"/>
        <path id="C" d="M2.104 2.256L.1 1.377 1.242.165l1.482 1.388-.62.703"/>
        <path id="E" d="M1.252 3.42L.017 1.722 2.083.213l.725.932-1.556 2.274"/>
        <path id="G" d="M5.218 5.712L.376 3.164 3.437.342l3.451 3.725-1.67 1.645"/>
        <path id="I" d="M2.273 6.363L.116 3.029l4.06-2.64 1.275 1.836-3.178 4.138"/>
        <path id="K" d="M3.36 6.366l-3.3-2.16L2.687.176 4.582 1.33 3.359 6.366"/>
        <path id="M" d="M.794 3.25L.096.616 1.302.257l1.653 2.426-2.16.567"/>
        <path id="O" d="M2.752 4.32L.354 3.235 1.672.306l1.37.568-.29 3.447"/>
        <path id="Q" d="M1.21 2.308C-.203 2.308-.2.113 1.21.113c1.415 0 1.413 2.195 0 2.195"/>
        <path id="S" d="M1.21 2.403c-1.536 0-1.533-2.384 0-2.384 1.537 0 1.534 2.384 0 2.384"/>
        <path id="U" d="M1.21 2.308C-.203 2.308-.2.113 1.21.113c1.415 0 1.413 2.195 0 2.195"/>
        <path id="W" d="M1.679 2.312a.56.56 0 0 1-.065-.004c-.162-.02-.378-.021-.526-.069-.207-.067-.345-.173-.516-.309l.043.025a.866.866 0 0 1-.31-.31.922.922 0 0 1-.124-.434.86.86 0 0 1 .125-.435.865.865 0 0 1 .262-.283.864.864 0 0 1 .107-.08c.172-.133.334-.22.556-.25l.383-.05A.58.58 0 0 1 1.69.11c.258 0 .52.16.701.326.216.198.309.492.322.776.012.273-.131.585-.322.775-.161.161-.463.326-.711.326"/>
        <path id="Y" d="M2.888 20.16h-.001C2.003 13.8 4.207 7.453 6.909 4.162 4.206 7.453 2.005 13.8 2.889 20.16M.43 10.314l.015-.06-.015.06m.02-.077C2.111 3.493 6.441.406 9.052.363c-2.61.043-6.94 3.13-8.604 9.874m6.477-6.095l.055-.067-.055.067m.204-.24c.763-.875 1.44-1.181 2.013-1.182-.573 0-1.25.307-2.013 1.181"/>
        <path id="aa" d="M9.366 8.937c5.235 0 6.622-3.964 6.51-6.29.112 2.326-1.274 6.29-6.51 6.29m.307-3.491c2.56-.021 3.672-1.281 4.25-2.217-.578.936-1.689 2.196-4.25 2.217M4.42 4.272C2.997 3.715 1.505 2.937.027 1.986h.001c1.478.95 2.969 1.729 4.393 2.286m11.453-1.649C15.746.172 14.503.01 14.401 0c.102.01 1.345.172 1.473 2.623"/>
        <path id="ac" d="M.254.336h39.842V58.52H.254z"/>
    </defs>
    <g fill="none" fill-rule="evenodd">
        <g transform="scale(1 -1) rotate(-45 115.392 -354.789)">
            <mask id="b" fill="#fff">
                <use xlink:href="#a"/>
            </mask>
            <path d="M2.104 2.256L.1 1.377 1.242.165l1.482 1.388-.62.703" mask="url(#b)"/>
        </g>
        <g transform="scale(1 -1) rotate(-45 93.93 -372.154)">
            <mask id="d" fill="#fff">
                <use xlink:href="#c"/>
            </mask>
            <path d="M1.252 3.42L.017 1.722 2.083.213l.725.932-1.556 2.274" mask="url(#d)"/>
        </g>
        <path fill="#67D0C9" d="M286.728 67.704l-2.36 2.966 1.337 1.13 3.46-2.169-2.437-1.927"/>
        <path fill="#F27156" d="M274.907 85.85l1.42 2.814 1.318-.616-.434-3.367-2.304 1.17"/>
        <path fill="#59CCC4" d="M282.78 95.986l2.364 3.592 1.69-1.04-1.113-4.497-2.94 1.945"/>
        <path fill="#47C6BE" d="M315.193 68.432l.37 2.748 1.273-.133.609-2.924-2.252.31"/>
        <g transform="scale(1 -1) rotate(-45 113.795 -405.495)">
            <mask id="f" fill="#fff">
                <use xlink:href="#e"/>
            </mask>
            <path d="M5.218 5.712L.376 3.164 3.437.342l3.451 3.725-1.67 1.645" mask="url(#f)"/>
        </g>
        <g transform="scale(1 -1) rotate(-45 129.18 -372.486)">
            <mask id="h" fill="#fff">
                <use xlink:href="#g"/>
            </mask>
            <path d="M2.273 6.363L.116 3.029l4.06-2.64 1.275 1.836-3.178 4.138" mask="url(#h)"/>
        </g>
        <g transform="scale(1 -1) rotate(-45 86.83 -352.09)">
            <mask id="j" fill="#fff">
                <use xlink:href="#i"/>
            </mask>
            <path d="M3.36 6.366l-3.3-2.16L2.687.176 4.582 1.33 3.359 6.366" mask="url(#j)"/>
        </g>
        <g transform="scale(1 -1) rotate(-45 105.773 -332.54)">
            <mask id="l" fill="#fff">
                <use xlink:href="#k"/>
            </mask>
            <path d="M.794 3.25L.096.616 1.302.257l1.653 2.426-2.16.567" mask="url(#l)"/>
        </g>
        <path fill="#FFD63C" d="M285.766.118l-1.873 4.609 2.1.928 3.555-4.01-3.782-1.527"/>
        <g transform="scale(1 -1) rotate(-45 88.963 -402.059)">
            <mask id="n" fill="#fff">
                <use xlink:href="#m"/>
            </mask>
            <path d="M2.752 4.32L.354 3.235 1.672.306l1.37.568-.29 3.447" mask="url(#n)"/>
        </g>
        <path fill="#47C6BE" d="M303.569 79.633l-.063 4.964 2.29.098 1.843-5.02-4.07-.042"/>
        <g transform="scale(1 -1) rotate(-45 131.077 -329.323)">
            <mask id="p" fill="#fff">
                <use xlink:href="#o"/>
            </mask>
            <path d="M1.21 2.308C-.203 2.308-.2.113 1.21.113c1.415 0 1.413 2.195 0 2.195" mask="url(#p)"/>
        </g>
        <path fill="#F0478F" d="M279.363 28.915l.052.202c.167.641-.434 1.242-1.075 1.075l-.202-.052c-.736-.192-.99-1.143-.454-1.68.536-.535 1.487-.281 1.679.455"/>
        <g transform="scale(1 -1) rotate(-45 81.751 -367.109)">
            <mask id="r" fill="#fff">
                <use xlink:href="#q"/>
            </mask>
            <path d="M1.21 2.403c-1.536 0-1.533-2.384 0-2.384 1.537 0 1.534 2.384 0 2.384" mask="url(#r)"/>
        </g>
        <path fill="#F0478F" d="M300.659 44.878c-.297-.93.497-1.73 1.432-1.433.406.13.727.416.837.838.105.4-.013.834-.305 1.127-.292.292-.727.41-1.127.305-.422-.11-.708-.432-.837-.837"/>
        <g transform="scale(1 -1) rotate(-45 42.376 -391.894)">
            <mask id="t" fill="#fff">
                <use xlink:href="#s"/>
            </mask>
            <path d="M1.21 2.308C-.203 2.308-.2.113 1.21.113c1.415 0 1.413 2.195 0 2.195" mask="url(#t)"/>
        </g>
        <g transform="scale(1 -1) rotate(-45 126.04 -364.907)">
            <mask id="v" fill="#fff">
                <use xlink:href="#u"/>
            </mask>
            <path d="M1.679 2.312a.56.56 0 0 1-.065-.004c-.162-.02-.378-.021-.526-.069-.207-.067-.345-.173-.516-.309l.043.025a.866.866 0 0 1-.31-.31.922.922 0 0 1-.124-.434.86.86 0 0 1 .125-.435.865.865 0 0 1 .262-.283.864.864 0 0 1 .107-.08c.172-.133.334-.22.556-.25l.383-.05A.58.58 0 0 1 1.69.11c.258 0 .52.16.701.326.216.198.309.492.322.776.012.273-.131.585-.322.775-.161.161-.463.326-.711.326" mask="url(#v)"/>
        </g>
        <path fill="#F36CA5" d="M287.025 34.949s5.185-3.948 9.846-1.285c4.661 2.664 9.69 6.766 14.02 5.672 4.328-1.094 8.81-4.673 8.145-8.62-.398-2.356-1.546-4.305-5.684-5.304-2.738-.66-4.233 0-4.852 1.094-1.593 1.023-2.45 1.498-2.45 1.498s.157-3.214 3.55-4.726c4.12-1.838 8.865-.553 10.981 2.42 3.277 4.601 1.641 9.44-.975 12.247-4.315 4.63-10.469 4.773-14.958 3.068-3.068-1.166-4.996-3.128-10.488-5.494-3.092-1.332-7.135-.57-7.135-.57"/>
        <path fill="#FFD63C" d="M300.32 69.408s-3.544 1.308-3.282-2.568c.317-4.707 3.9-11.89 10.273-15.696 6.374-3.805 16.933-3.234 23.259-.428 6.325 2.806 6.278 5.802 5.897 7.42-.38 1.617-1.95 2.616-1.95 2.616s1 .903 2.902-.809c1.902-1.712 3.948-6.136-1.427-10.178-5.375-4.043-13.699-6.279-20.833-4.852-7.135 1.427-14.126 5.85-18.264 12.557-4.138 6.706-2.569 12.557-.333 13.745 2.235 1.19 5.374-1.45 5.374-1.45l-1.616-.357"/>
        <g transform="scale(1 -1) rotate(-45 66.692 -381.418)">
            <mask id="x" fill="#fff">
                <use xlink:href="#w"/>
            </mask>
            <path d="M2.888 20.16h-.001C2.003 13.8 4.207 7.453 6.909 4.162 4.206 7.453 2.005 13.8 2.889 20.16M.43 10.314l.015-.06-.015.06m.02-.077C2.111 3.493 6.441.406 9.052.363c-2.61.043-6.94 3.13-8.604 9.874m6.477-6.095l.055-.067-.055.067m.204-.24c.763-.875 1.44-1.181 2.013-1.182-.573 0-1.25.307-2.013 1.181" mask="url(#x)"/>
        </g>
        <path fill="#FFC222" d="M303.588 50.156c-2.586 1.961-4.87 4.385-6.639 7.226 0 .002-.002.003-.003.005l-.007.011a.064.064 0 0 1-.005.008.108.108 0 0 0-.005.01l-.007.01-.004.007-.008.012-.004.007-.011.018-.02.031-.02.035-.01.014-.01.017-.033.054-.009.015c-3.592 5.944-2.713 11.189-.898 13.065l.04.04c.2.2.41.36.627.474 2.235 1.19 5.374-1.45 5.374-1.45l-1.616-.357h-.001c-.033.012-1.75.633-2.691-.307l-.001-.001-.001-.001c-.405-.406-.667-1.101-.588-2.26v-.012-.005l.001-.009v-.005l.001-.008v-.006l.001-.007v-.005-.008l.002-.006v-.007-.006-.007l.002-.007v-.007-.006l.001-.008.001-.013v-.005l.002-.01v-.003-.009-.004l.002-.008v-.005-.01-.003l.002-.01v-.002-.01l.001-.005.001-.008v-.004l.008-.086.001-.013.002-.012v-.001c.415-4.238 3.345-10.283 8.468-14.157a35.957 35.957 0 0 1-.632-.613c-.5-.5-.961-1.012-1.314-1.573"/>
        <g transform="scale(1 -1) rotate(-45 101.122 -416.798)">
            <mask id="z" fill="#fff">
                <use xlink:href="#y"/>
            </mask>
            <path d="M9.366 8.937c5.235 0 6.622-3.964 6.51-6.29.112 2.326-1.274 6.29-6.51 6.29m.307-3.491c2.56-.021 3.672-1.281 4.25-2.217-.578.936-1.689 2.196-4.25 2.217M4.42 4.272C2.997 3.715 1.505 2.937.027 1.986h.001c1.478.95 2.969 1.729 4.393 2.286m11.453-1.649C15.746.172 14.503.01 14.401 0c.102.01 1.345.172 1.473 2.623" mask="url(#z)"/>
        </g>
        <path fill="#FFC222" d="M337.28 50.876a12.09 12.09 0 0 0-1.304-1.123l-.003-.003-.012-.008-.009-.007-.006-.005a.16.16 0 0 0-.011-.008l-.004-.003-.013-.01h-.001c-2.538-1.892-5.725-3.375-9.127-4.272a10.675 10.675 0 0 0-1.027 3.75c1.717.374 3.322.878 4.722 1.492h.002l.014.007.005.002.012.005a.112.112 0 0 0 .006.003l.01.004.011.005.007.003.018.008c.087.038.172.077.257.116 1.948.89 3.266 1.798 4.144 2.672l.013.013.045.045c1.797 1.826 1.69 3.502 1.438 4.574-.197.84-.716 1.513-1.169 1.966-.418.419-.78.65-.78.65l.004.004c.079.065 1.072.83 2.897-.813l.017-.016c1.724-1.565 3.546-5.349-.154-9.05l-.001-.001"/>
        <g transform="scale(1 -1) rotate(-45 61.59 -366.178)">
            <mask id="B" fill="#fff">
                <use xlink:href="#A"/>
            </mask>
            <path fill="#FFDE63" d="M4.776.336L2.018 2.152s-5.516 16.951 2.96 23.14c8.475 6.188 15.26-2.338 16.48-6.794 1.597-5.835-.64-8.593-.64-8.593l-.235 2.606s.706 2.607-2.69 6.592c-4.016 4.711-11.1 5.448-13.925.27-2.825-5.18-1.412-11.84-.74-14.328A50.482 50.482 0 0 1 4.777.336M39.854 43.764c-.454-1.967-1.69-4.061-6.02-4.683-5.254-.755-10.56 3.363-12.175 7.6-1.614 4.238.74 9.821 2.69 12.445 1.952 2.623 3.23 3.026 3.23 3.026l2.017-.605s-5.717-3.161-6.12-8.34c-.404-5.18 3.363-8.888 6.995-9.897 3.632-1.009 5.372-1.513 7.399-.328 1.273.745 2.035 4.213 2.035 4.213s.462-1.207-.05-3.43" mask="url(#B)"/>
        </g>
        <g>
            <g transform="rotate(135 22.927 22.572)">
                <mask id="D" fill="#fff">
                    <use xlink:href="#C"/>
                </mask>
                <path d="M2.104 2.256L.1 1.377 1.242.165l1.482 1.388-.62.703" mask="url(#D)"/>
            </g>
            <g transform="rotate(135 15.735 31.462)">
                <mask id="F" fill="#fff">
                    <use xlink:href="#E"/>
                </mask>
                <path d="M1.252 3.42L.017 1.722 2.083.213l.725.932-1.556 2.274" mask="url(#F)"/>
            </g>
            <path fill="#67D0C9" d="M53.044 67.704l2.358 2.966-1.336 1.13-3.46-2.169 2.438-1.927"/>
            <path fill="#F27156" d="M64.865 85.85l-1.42 2.814-1.318-.616.434-3.367 2.304 1.17"/>
            <path fill="#59CCC4" d="M56.99 95.986l-2.363 3.592-1.69-1.04 1.113-4.497 2.94 1.945"/>
            <path fill="#47C6BE" d="M24.579 68.432l-.371 2.748-1.273-.133-.608-2.924 2.252.31"/>
            <g transform="rotate(135 1.924 23.234)">
                <mask id="H" fill="#fff">
                    <use xlink:href="#G"/>
                </mask>
                <path d="M5.218 5.712L.376 3.164 3.437.342l3.451 3.725-1.67 1.645" mask="url(#H)"/>
            </g>
            <g transform="rotate(135 15.597 16.86)">
                <mask id="J" fill="#fff">
                    <use xlink:href="#I"/>
                </mask>
                <path d="M2.273 6.363L.116 3.029l4.06-2.64 1.275 1.836-3.178 4.138" mask="url(#J)"/>
            </g>
            <g transform="rotate(135 24.045 34.403)">
                <mask id="L" fill="#fff">
                    <use xlink:href="#K"/>
                </mask>
                <path d="M3.36 6.366l-3.3-2.16L2.687.176 4.582 1.33 3.359 6.366" mask="url(#L)"/>
            </g>
            <g transform="rotate(135 32.143 26.556)">
                <mask id="N" fill="#fff">
                    <use xlink:href="#M"/>
                </mask>
                <path d="M.794 3.25L.096.616 1.302.257l1.653 2.426-2.16.567" mask="url(#N)"/>
            </g>
            <path fill="#FFD63C" d="M54.005.118l1.874 4.609-2.1.928-3.556-4.01L54.005.118"/>
            <g transform="rotate(135 3.347 33.52)">
                <mask id="P" fill="#fff">
                    <use xlink:href="#O"/>
                </mask>
                <path d="M2.752 4.32L.354 3.235 1.672.306l1.37.568-.29 3.447" mask="url(#P)"/>
            </g>
            <path fill="#47C6BE" d="M36.202 79.633l.063 4.964-2.29.098-1.842-5.02 4.07-.042"/>
            <g transform="rotate(135 33.476 16.075)">
                <mask id="R" fill="#fff">
                    <use xlink:href="#Q"/>
                </mask>
                <path d="M1.21 2.308C-.203 2.308-.2.113 1.21.113c1.415 0 1.413 2.195 0 2.195" mask="url(#R)"/>
            </g>
            <path fill="#F0478F" d="M60.409 28.915l-.053.202c-.166.641.434 1.242 1.075 1.075l.202-.052c.737-.192.99-1.143.454-1.68-.536-.535-1.487-.281-1.678.455"/>
            <g transform="rotate(135 17.824 36.507)">
                <mask id="T" fill="#fff">
                    <use xlink:href="#S"/>
                </mask>
                <path d="M1.21 2.403c-1.536 0-1.533-2.384 0-2.384 1.537 0 1.534 2.384 0 2.384" mask="url(#T)"/>
            </g>
            <path fill="#F0478F" d="M39.112 44.878c.297-.93-.497-1.73-1.432-1.433-.405.13-.727.416-.837.838-.105.4.013.834.305 1.127.293.292.727.41 1.127.305.422-.11.708-.432.837-.837"/>
            <g transform="rotate(135 7.558 52.816)">
                <mask id="V" fill="#fff">
                    <use xlink:href="#U"/>
                </mask>
                <path d="M1.21 2.308C-.203 2.308-.2.113 1.21.113c1.415 0 1.413 2.195 0 2.195" mask="url(#V)"/>
            </g>
            <g transform="rotate(135 18.736 18.161)">
                <mask id="X" fill="#fff">
                    <use xlink:href="#W"/>
                </mask>
                <path d="M1.679 2.312a.56.56 0 0 1-.065-.004c-.162-.02-.378-.021-.526-.069-.207-.067-.345-.173-.516-.309l.043.025a.866.866 0 0 1-.31-.31.922.922 0 0 1-.124-.434.86.86 0 0 1 .125-.435.865.865 0 0 1 .262-.283.864.864 0 0 1 .107-.08c.172-.133.334-.22.556-.25l.383-.05A.58.58 0 0 1 1.69.11c.258 0 .52.16.701.326.216.198.309.492.322.776.012.273-.131.585-.322.775-.161.161-.463.326-.711.326" mask="url(#X)"/>
            </g>
            <path fill="#F36CA5" d="M52.746 34.949S47.56 31 42.9 33.664c-4.66 2.664-9.69 6.766-14.019 5.672-4.328-1.094-8.811-4.673-8.145-8.62.397-2.356 1.546-4.305 5.684-5.304 2.737-.66 4.233 0 4.851 1.094 1.594 1.023 2.45 1.498 2.45 1.498s-.157-3.214-3.55-4.726c-4.12-1.838-8.865-.553-10.98 2.42-3.278 4.601-1.642 9.44.974 12.247 4.315 4.63 10.47 4.773 14.959 3.068 3.068-1.166 4.996-3.128 10.487-5.494 3.092-1.332 7.135-.57 7.135-.57"/>
            <path fill="#FFD63C" d="M39.452 69.408s3.543 1.308 3.282-2.568c-.318-4.707-3.9-11.89-10.274-15.696-6.373-3.805-16.932-3.234-23.258-.428-6.326 2.806-6.279 5.802-5.898 7.42.38 1.617 1.95 2.616 1.95 2.616s-.999.903-2.901-.809C.45 58.231-1.595 53.807 3.78 49.765c5.374-4.043 13.698-6.279 20.832-4.852 7.135 1.427 14.127 5.85 18.265 12.557 4.138 6.706 2.568 12.557.332 13.745-2.235 1.19-5.374-1.45-5.374-1.45l1.617-.357"/>
            <g transform="rotate(135 11.897 42.744)">
                <mask id="Z" fill="#fff">
                    <use xlink:href="#Y"/>
                </mask>
                <path d="M2.888 20.16h-.001C2.003 13.8 4.207 7.453 6.909 4.162 4.206 7.453 2.005 13.8 2.889 20.16M.43 10.314l.015-.06-.015.06m.02-.077C2.111 3.493 6.441.406 9.052.363c-2.61.043-6.94 3.13-8.604 9.874m6.477-6.095l.055-.067-.055.067m.204-.24c.763-.875 1.44-1.181 2.013-1.182-.573 0-1.25.307-2.013 1.181" mask="url(#Z)"/>
            </g>
            <path fill="#FFC222" d="M36.183 50.156c2.587 1.961 4.87 4.385 6.639 7.226l.003.005.007.011a.064.064 0 0 0 .005.008.108.108 0 0 1 .006.01l.006.01.005.007.007.012.004.007.012.018.019.031.021.035.009.014.01.017.033.054.01.015c3.592 5.944 2.713 11.189.897 13.065l-.039.04c-.2.2-.41.36-.628.474-2.235 1.19-5.374-1.45-5.374-1.45l1.617-.357c.034.012 1.75.633 2.692-.307V69.1l.002-.001c.405-.406.666-1.101.588-2.26v-.012l-.002-.005v-.009-.005-.008l-.002-.006v-.007-.005-.008l-.001-.006v-.007l-.001-.006v-.007l-.001-.007v-.007l-.001-.006v-.008l-.002-.013v-.005l-.001-.01v-.003l-.001-.009v-.004l-.001-.008v-.005l-.001-.01v-.003l-.001-.01v-.002l-.002-.01v-.005-.008l-.001-.004-.008-.086-.001-.013-.001-.012v-.001c-.416-4.238-3.346-10.283-8.469-14.157.215-.204.427-.407.632-.613.501-.5.962-1.012 1.314-1.573"/>
            <g transform="rotate(135 -2.758 28.483)">
                <mask id="ab" fill="#fff">
                    <use xlink:href="#aa"/>
                </mask>
                <path d="M9.366 8.937c5.235 0 6.622-3.964 6.51-6.29.112 2.326-1.274 6.29-6.51 6.29m.307-3.491c2.56-.021 3.672-1.281 4.25-2.217-.578.936-1.689 2.196-4.25 2.217M4.42 4.272C2.997 3.715 1.505 2.937.027 1.986h.001c1.478.95 2.969 1.729 4.393 2.286m11.453-1.649C15.746.172 14.503.01 14.401 0c.102.01 1.345.172 1.473 2.623" mask="url(#ab)"/>
            </g>
            <path fill="#FFC222" d="M2.49 50.876a12.09 12.09 0 0 1 1.305-1.123l.003-.003.012-.008.01-.007.005-.005a.16.16 0 0 1 .011-.008l.004-.003.014-.01c2.538-1.892 5.725-3.375 9.127-4.272.573 1.17.91 2.442 1.027 3.75-1.717.374-3.322.878-4.722 1.492h-.002a.215.215 0 0 1-.014.007l-.005.002-.012.005a.112.112 0 0 1-.006.003l-.01.004-.011.005-.006.003-.018.008c-.087.038-.173.077-.258.116-1.948.89-3.266 1.798-4.144 2.672l-.013.013-.045.045c-1.797 1.826-1.69 3.502-1.438 4.574.197.84.716 1.513 1.17 1.966.418.419.78.65.78.65l-.005.004c-.078.065-1.072.83-2.896-.813l-.018-.016c-1.724-1.565-3.546-5.349.155-9.05v-.001"/>
            <g transform="rotate(135 18.21 44.858)">
                <mask id="ad" fill="#fff">
                    <use xlink:href="#ac"/>
                </mask>
                <path fill="#FFDE63" d="M4.776.336L2.018 2.152s-5.516 16.951 2.96 23.14c8.475 6.188 15.26-2.338 16.48-6.794 1.597-5.835-.64-8.593-.64-8.593l-.235 2.606s.706 2.607-2.69 6.592c-4.016 4.711-11.1 5.448-13.925.27-2.825-5.18-1.412-11.84-.74-14.328A50.482 50.482 0 0 1 4.777.336M39.854 43.764c-.454-1.967-1.69-4.061-6.02-4.683-5.254-.755-10.56 3.363-12.175 7.6-1.614 4.238.74 9.821 2.69 12.445 1.952 2.623 3.23 3.026 3.23 3.026l2.017-.605s-5.717-3.161-6.12-8.34c-.404-5.18 3.363-8.888 6.995-9.897 3.632-1.009 5.372-1.513 7.399-.328 1.273.745 2.035 4.213 2.035 4.213s.462-1.207-.05-3.43" mask="url(#ad)"/>
            </g>
        </g>
    </g>
</svg>
