<svg xmlns="http://www.w3.org/2000/svg" width="55" height="55" viewBox="0 0 55 55">
    <defs>
        <filter id="a" width="310.3%" height="310.3%" x="-105.2%" y="-105.2%" filterUnits="objectBoundingBox">
            <feOffset dy="2" in="SourceAlpha" result="shadowOffsetOuter1"/>
            <feGaussianBlur in="shadowOffsetOuter1" result="shadowBlurOuter1" stdDeviation="6.5"/>
            <feColorMatrix in="shadowBlurOuter1" result="shadowMatrixOuter1" values="0 0 0 0 0 0 0 0 0 0 0 0 0 0 0 0 0 0 0.2 0"/>
            <feMerge>
                <feMergeNode in="shadowMatrixOuter1"/>
                <feMergeNode in="SourceGraphic"/>
            </feMerge>
        </filter>
    </defs>
    <g fill="none" fill-rule="evenodd" transform="translate(10 8)">
        <g fill-rule="nonzero" filter="url(#a)" opacity=".5" transform="translate(3 3)">
            <circle cx="14.5" cy="14.5" r="14.254" fill="#E6E7E8" stroke="#ECF0F1"/>
            <path fill="#38454F" d="M18.12 18.924h-6.585l-2.263-5.899 5.406-3.932 5.407 3.932z"/>
            <g fill="#38454F">
                <path d="M11.949 18.484a.491.491 0 0 0-.66.22l-.22.44a.492.492 0 1 0 .88.439l.22-.44a.49.49 0 0 0-.22-.66zM11.07 20.242a.491.491 0 0 0-.66.22l-.22.44a.492.492 0 1 0 .88.44l.22-.44a.49.49 0 0 0-.22-.66zM18.779 19.143l-.22-.44a.49.49 0 1 0-.88.44l.22.44a.491.491 0 1 0 .88-.44zM19.438 20.462a.49.49 0 1 0-.879.44l.22.44a.491.491 0 1 0 .88-.44l-.22-.44zM8.284 12.067l-.452-.193a.49.49 0 1 0-.388.903l.452.194a.492.492 0 0 0 .388-.903zM6.477 11.293l-.452-.194a.492.492 0 0 0-.388.904l.452.193a.492.492 0 0 0 .388-.903zM14.678 5.161a.491.491 0 0 0-.491.492v.491a.491.491 0 1 0 .983 0v-.491a.491.491 0 0 0-.492-.492zM14.678 7.127a.491.491 0 0 0-.491.492v.491a.491.491 0 1 0 .983 0V7.62a.491.491 0 0 0-.492-.492zM21.525 11.874l-.452.193a.491.491 0 1 0 .388.903l.452-.193a.491.491 0 1 0-.388-.903zM23.978 11.357a.491.491 0 0 0-.646-.258l-.451.194a.491.491 0 1 0 .388.903l.452-.194a.491.491 0 0 0 .257-.645z"/>
            </g>
            <path fill="#435159" d="M10.983.732L9.756 2.497l4.922 3.156 4.424-3.383L17.988.677a14.291 14.291 0 0 0-3.399-.43 14.275 14.275 0 0 0-3.606.485zM24.327 6.144l-.801 5.407 4.919 2.987.296-.566a14.179 14.179 0 0 0-2.52-7.58l-1.894-.248zM24.904 24.24L25 21.874l-5.406-.002-2.356 5.213 2.038.846a14.267 14.267 0 0 0 5.628-3.693zM10.255 21.873l-5.899.002.106 2.56a14.255 14.255 0 0 0 5.54 3.53l2.117-.88-1.864-5.212zM5.831 11.55L5.03 6.145l-2.091.273a14.172 14.172 0 0 0-2.488 7.24l.462.88 4.918-2.986z"/>
        </g>
        <circle cx="17.5" cy="17.5" r="16.5" stroke="#28AE62" stroke-width="2"/>
        <g fill-rule="nonzero">
            <path fill="#FF7058" d="M18.458 23.155h-2.93l.499-1.066.433-.999h1.066l.433 1z"/>
            <path fill="#FFD15C" d="M20.323 23.155h-6.66c-.367 0-.667.3-.667.666v2.165h7.96V23.82c.033-.366-.266-.666-.633-.666z"/>
            <path fill="#F1543F" d="M17.959 22.09a8.512 8.512 0 0 1-.8.366l-.166.033-.167-.067a8.52 8.52 0 0 1-.799-.366l.433-1h1.032l.467 1.033z"/>
            <g fill="#F8B64C">
                <path d="M9 11.832v1.365c0 3.33 2.065 6.195 4.962 7.394.933.4 1.965.599 3.03.599a7.69 7.69 0 0 0 3.031-.6c2.898-1.198 4.963-4.063 4.963-7.393v-1.365H9zm14.654 1.365a6.587 6.587 0 0 1-1.532 4.23c-1.233 1.465-3.064 2.43-5.13 2.43a6.596 6.596 0 0 1-5.128-2.43 6.706 6.706 0 0 1-1.532-4.23v-.033H23.62v.033h.034zM22.188 10h-10.39c-.234 0-.4.2-.4.4 0 .233.166.433.4.433h10.39c.233 0 .4-.2.4-.4 0-.233-.167-.433-.4-.433z"/>
            </g>
            <path fill="#FFD15C" d="M22.188 10.833v3.596a8.116 8.116 0 0 1-5.195 7.56 8.16 8.16 0 0 1-5.195-7.593v-3.563h10.39z"/>
            <path fill="#FFF" d="M16.993 12.331l.7 2.132h2.23l-1.798 1.332.666 2.131-1.798-1.332-1.799 1.332.667-2.131-1.799-1.332h2.231z"/>
            <path fill="#FFC952" d="M11.797 10.833h10.357v1H11.797z"/>
        </g>
    </g>
</svg>
